<mxfile host="app.diagrams.net" modified="2024-03-13T05:33:24.803Z" agent="Mozilla/5.0 (Macintosh; Intel Mac OS X 10_15_7) AppleWebKit/537.36 (KHTML, like Gecko) Chrome/122.0.0.0 Safari/537.36" etag="P0aDqWa0eSURF6cwMMQj" version="23.1.1" type="github">
  <diagram name="第 1 页" id="yzNBgipiSElc2cvSdpmd">
    <mxGraphModel dx="1242" dy="786" grid="1" gridSize="10" guides="1" tooltips="1" connect="1" arrows="1" fold="1" page="1" pageScale="1" pageWidth="827" pageHeight="1169" math="0" shadow="0">
      <root>
        <mxCell id="0" />
        <mxCell id="1" parent="0" />
        <mxCell id="PGAR_lDDNWLBFWoJxTaw-1" value="&lt;font style=&quot;font-size: 16px;&quot;&gt;用户&lt;/font&gt;" style="rounded=0;whiteSpace=wrap;html=1;hachureGap=4;fontFamily=Architects Daughter;fontSource=https%3A%2F%2Ffonts.googleapis.com%2Fcss%3Ffamily%3DArchitects%2BDaughter;fontSize=20;glass=0;shadow=0;dashed=1;verticalAlign=top;" vertex="1" parent="1">
          <mxGeometry x="320" y="260" width="380" height="250" as="geometry" />
        </mxCell>
        <mxCell id="PGAR_lDDNWLBFWoJxTaw-5" value="系统用户关联表&lt;br&gt;ruigu_system_role_related" style="rounded=0;whiteSpace=wrap;html=1;hachureGap=4;strokeColor=default;align=center;verticalAlign=middle;fillColor=default;" vertex="1" parent="1">
          <mxGeometry x="340" y="640" width="180" height="40" as="geometry" />
        </mxCell>
        <mxCell id="PGAR_lDDNWLBFWoJxTaw-6" value="销售组&lt;br&gt;ruigu_intent_group" style="rounded=0;whiteSpace=wrap;html=1;hachureGap=4;strokeColor=default;align=center;verticalAlign=middle;fillColor=default;" vertex="1" parent="1">
          <mxGeometry x="550" y="640" width="180" height="40" as="geometry" />
        </mxCell>
        <mxCell id="PGAR_lDDNWLBFWoJxTaw-7" value="用户与组织对应关系&lt;br&gt;ruigu_intent_group_related" style="rounded=0;whiteSpace=wrap;html=1;hachureGap=4;strokeColor=default;align=center;verticalAlign=middle;fillColor=default;" vertex="1" parent="1">
          <mxGeometry x="760" y="640" width="180" height="40" as="geometry" />
        </mxCell>
        <mxCell id="PGAR_lDDNWLBFWoJxTaw-9" value="BDM组&lt;br&gt;ruigu_bdm_list" style="rounded=0;whiteSpace=wrap;html=1;hachureGap=4;strokeColor=default;align=center;verticalAlign=middle;fillColor=default;" vertex="1" parent="1">
          <mxGeometry x="560" y="710" width="180" height="40" as="geometry" />
        </mxCell>
        <mxCell id="PGAR_lDDNWLBFWoJxTaw-10" value="bdm组成员表&lt;br&gt;ruigu_bdm_member" style="rounded=0;whiteSpace=wrap;html=1;hachureGap=4;strokeColor=default;align=center;verticalAlign=middle;fillColor=default;" vertex="1" parent="1">
          <mxGeometry x="770" y="710" width="180" height="40" as="geometry" />
        </mxCell>
        <mxCell id="PGAR_lDDNWLBFWoJxTaw-11" value="销运区域表(蜂窝)&lt;br&gt;sale_area" style="rounded=0;whiteSpace=wrap;html=1;hachureGap=4;strokeColor=default;align=center;verticalAlign=middle;fillColor=default;" vertex="1" parent="1">
          <mxGeometry x="550" y="780" width="180" height="40" as="geometry" />
        </mxCell>
        <mxCell id="PGAR_lDDNWLBFWoJxTaw-12" value="bd与网格关系bdm_bd_sale_area_asso" style="rounded=0;whiteSpace=wrap;html=1;hachureGap=4;strokeColor=default;align=center;verticalAlign=middle;fillColor=default;" vertex="1" parent="1">
          <mxGeometry x="780" y="780" width="180" height="40" as="geometry" />
        </mxCell>
        <mxCell id="PGAR_lDDNWLBFWoJxTaw-13" value="RSM系统用户登陆日志表&lt;br&gt;rsm_user_login_log" style="rounded=0;whiteSpace=wrap;html=1;" vertex="1" parent="1">
          <mxGeometry x="310" y="930" width="170" height="40" as="geometry" />
        </mxCell>
        <mxCell id="PGAR_lDDNWLBFWoJxTaw-14" value="新系统用户表&lt;br&gt;rsm_user" style="rounded=0;whiteSpace=wrap;html=1;" vertex="1" parent="1">
          <mxGeometry x="160" y="930" width="130" height="40" as="geometry" />
        </mxCell>
        <mxCell id="PGAR_lDDNWLBFWoJxTaw-15" value="用户组表&lt;br&gt;rsm_usergroup" style="rounded=0;whiteSpace=wrap;html=1;" vertex="1" parent="1">
          <mxGeometry x="180" y="1000" width="110" height="40" as="geometry" />
        </mxCell>
        <mxCell id="PGAR_lDDNWLBFWoJxTaw-16" value="新系统用户组归属表rsm_user_to_group" style="rounded=0;whiteSpace=wrap;html=1;" vertex="1" parent="1">
          <mxGeometry x="320" y="1000" width="110" height="40" as="geometry" />
        </mxCell>
        <mxCell id="PGAR_lDDNWLBFWoJxTaw-17" value="RS系统菜单表&lt;br&gt;rsm_menus" style="rounded=0;whiteSpace=wrap;html=1;" vertex="1" parent="1">
          <mxGeometry x="180" y="1050" width="110" height="40" as="geometry" />
        </mxCell>
        <mxCell id="PGAR_lDDNWLBFWoJxTaw-18" value="MP系统权限表rsm_permission" style="rounded=0;whiteSpace=wrap;html=1;" vertex="1" parent="1">
          <mxGeometry x="320" y="1050" width="110" height="40" as="geometry" />
        </mxCell>
      </root>
    </mxGraphModel>
  </diagram>
</mxfile>
